<svg width="180" height="40" viewBox="0 0 180 40" fill="none" xmlns="http://www.w3.org/2000/svg">
<path d="M33.4584 22.6407L17.7824 8.7329C17.4951 8.47933 17.0638 8.47933 16.7765 8.7329L1.09477 22.6163C-0.264438 23.8663 -0.372496 25.9745 0.85178 27.3569C2.07606 28.7394 4.18186 28.8871 5.58716 27.6891L17.2737 17.3423L28.9617 27.7121C30.3646 28.9237 32.4808 28.7832 33.7112 27.3968C34.9416 26.0103 34.8296 23.8925 33.4598 22.6436M3.65857 26.5194C3.18655 26.6264 2.69265 26.4831 2.35128 26.14C2.00991 25.7969 1.86911 25.3023 1.97859 24.8308C2.09778 24.3119 2.50299 23.9067 3.02193 23.7875C3.51652 23.655 4.04399 23.8026 4.39805 24.1725C4.7521 24.5423 4.87647 25.0757 4.72252 25.5641C4.56856 26.0524 4.16074 26.418 3.65857 26.5179M31.5284 26.5179C31.0563 26.625 30.5624 26.4817 30.2211 26.1385C29.8797 25.7954 29.7389 25.3008 29.8484 24.8294C29.9676 24.3105 30.3728 23.9053 30.8917 23.7861C31.3863 23.6536 31.9138 23.8012 32.2678 24.171C32.6219 24.5409 32.7463 25.0743 32.5923 25.5626C32.4383 26.0509 32.0305 26.4165 31.5284 26.5165M71.0171 8.29172H75.6992V11.344H75.7826C77.3706 9.21288 79.6283 8 82.0943 8H82.6792V13.2251C82.136 13.1835 81.5928 13.1418 81.2579 13.1418C77.7054 13.1418 75.6978 15.6911 75.6978 19.0337V28.6893H71.0171V8.29172ZM135.076 18.5336C135.076 12.5138 139.34 8 145.777 8C152.047 8 156.477 12.2637 156.477 18.5336C156.477 24.7202 152.047 29.0241 145.777 29.0241C139.339 29.0241 135.076 24.5103 135.076 18.5336ZM151.713 18.5336C151.713 14.7714 149.127 12.2221 145.777 12.2221C142.224 12.2221 139.84 14.9812 139.84 18.5336C139.84 22.0027 142.264 24.7618 145.777 24.7618C149.082 24.7618 151.713 22.2125 151.713 18.5336ZM160.943 8.29172H165.62V11.0925H165.704C167.376 9.08067 169.843 8 172.517 8C176.991 8 180 10.5493 180 16.6942V28.6907H175.318V17.9128C175.318 13.6016 173.688 12.2278 170.887 12.2278C167.71 12.2278 165.62 14.4438 165.62 18.456V28.6979H160.938L160.943 8.29172ZM56.9651 24.7618C53.7877 24.7618 51.5731 23.0057 50.9868 20.0382H65.868C65.9461 19.4421 65.9879 18.8417 65.993 18.2405C65.993 12.3054 62.1056 8 56.3788 8C50.4004 8 46.138 12.2221 46.138 18.4905C46.138 24.8854 50.5269 29.0241 56.7136 29.0241C60.7548 29.0241 63.2352 27.6403 64.941 25.6916L61.6616 22.875C60.6082 23.9398 59.0748 24.7604 56.9651 24.7604M56.3385 12.2206C59.0144 12.2206 60.6858 13.8934 61.2707 16.3594H51.0672C51.7355 13.6836 53.7431 12.2206 56.3342 12.2206M121.961 24.7618C118.784 24.7618 116.569 23.0057 115.983 20.0382H130.864C130.942 19.4421 130.984 18.8417 130.989 18.2405C130.989 12.3054 127.102 8 121.375 8C115.396 8 111.134 12.2221 111.134 18.4905C111.134 24.8854 115.523 29.0241 121.71 29.0241C125.751 29.0241 128.231 27.6403 129.937 25.6916L126.658 22.875C125.604 23.9398 124.071 24.7604 121.961 24.7604M121.334 12.2206C124.01 12.2206 125.682 13.8934 126.267 16.3594H116.063C116.731 13.6836 118.739 12.2206 121.33 12.2206M101.754 8.29172V10.4674H101.669C99.9561 8.8378 97.6567 8.00144 95.3157 8.00144C89.6722 8.00144 85.6181 12.3126 85.6181 18.2836C85.6181 24.3451 89.882 28.3573 95.5672 28.3573C98.0749 28.3573 100.208 27.4376 101.747 25.8914H101.83C101.83 27.3284 102.03 28.9221 101.502 30.2974C100.607 32.6355 98.1597 33.7779 95.7684 33.7779C93.2621 33.7779 91.5835 33.1643 89.7627 32.2532L87.7134 35.876C90.0128 37.2513 92.9732 38 96.0199 38C103.586 38 106.429 33.5279 106.429 27.3413V8.29172H101.754ZM96.1938 24.0505C92.8884 24.0505 90.3836 21.7929 90.3836 18.1586C90.3836 14.6895 92.7246 12.2666 96.1938 12.2666C99.4546 12.2666 101.962 14.6076 101.962 18.0766C101.962 21.5457 99.5796 24.0548 96.1938 24.0548" fill="#0970CE"></path>
</svg>